# xmcd
#
# Track frame offsets: 
#        150
#        13006
#        28440
#        39995
#        57229
#        69254
#        84711
#        98238
#        117060
#        133708
#        149165
#        164745
#
# Disc length: 2461 seconds
#
# Revision: 2
# Processed by: cddbd v1.5.2PL0 Copyright (c) Steve Scherf et al.
# Submitted via: ExactAudioCopy v1.3
#
DISCID=ad099b0c
DTITLE=Jim Glaser - The Man in the Mirror
DYEAR=1983
DGENRE=Country
TTITLE0=When You're Not A Lady
TTITLE1=You're Gettin' To Me Again
TTITLE2=You Got Me Running
TTITLE3=Pretend
TTITLE4=Woman, Woman
TTITLE5=I'd Love To See You Again
TTITLE6=Close Friends
TTITLE7=If I Could Only Dance With You
TTITLE8=Let Me Down Easy
TTITLE9=Stand By the Road
TTITLE10=The Man in the Mirror
TTITLE11=The Lights of Albuquerque
EXTD=
EXTT0=
EXTT1=
EXTT2=
EXTT3=
EXTT4=
EXTT5=
EXTT6=
EXTT7=
EXTT8=
EXTT9=
EXTT10=
EXTT11=
PLAYORDER=
